<svg display="none" xmlns="http://www.w3.org/2000/svg">

<symbol id="search" viewBox="0 0 15.28 15.281">
 <path fill="#243f4d" fill-rile="evenodd" d="M1547.7,72.076a0.617,0.617,0,0,1,.75.485,2.583,2.583,0,0,0,.78,1.489,3.036,3.036,0,0,0,1.49.777,0.636,0.636,0,0,1,.49.743,0.649,0.649,0,0,1-.72.515,4.21,4.21,0,0,1-2.14-1.13,4.164,4.164,0,0,1-1.13-2.136A0.6,0.6,0,0,1,1547.7,72.076ZM1550.98,66a6.267,6.267,0,0,1,6.28,6.257,6.136,6.136,0,0,1-.57,2.6l2.34,2.036c1.7,1.746.74,3.266,0.29,3.717-0.42.454-1.99,1.414-3.73-.292l-2.06-2.35A6.261,6.261,0,1,1,1550.98,66Zm5.55,13.517a1.352,1.352,0,0,0,1.88.226,1.313,1.313,0,0,0-.23-1.874l-2.16-1.88a6.236,6.236,0,0,1-1.37,1.34Zm-5.55-2.312a4.948,4.948,0,1,0-4.97-4.948A4.963,4.963,0,0,0,1550.98,77.2Z" transform="translate(-1544.72 -66)" />
</symbol>

<symbol id="heart" viewBox="0 0 20 20">
<path fill="#243f4d" fill-rule="evenodd" d="M1484.78,49.589a6.683,6.683,0,0,0-4.17-4.371c-1.71-.595-3.75,0-5.58,1.611-1.83-1.569-3.88-2.122-5.58-1.569a6.884,6.884,0,0,0-4.17,4.371c-0.47,1.57-.51,4.117,1.95,7.215,1.11,1.4,2.82,3.4,4.22,4.965,2.68,3.014,3.11,3.183,3.49,3.183h0.17c0.39,0,.77-0.168,3.45-3.224,1.41-1.613,3.11-3.609,4.22-4.966C1485.25,53.706,1485.25,51.159,1484.78,49.589Zm-3.28,6.2c-1.96,2.462-5.32,6.324-6.47,7.385-1.15-1.061-4.52-4.924-6.48-7.385-1.61-1.994-2.21-3.947-1.7-5.687a4.986,4.986,0,0,1,3.11-3.225c1.23-.467,2.9.169,4.43,1.655a0.84,0.84,0,0,0,1.06.126,0.447,0.447,0,0,0,.22-0.17c1.53-1.443,3.19-2.079,4.42-1.655a5.168,5.168,0,0,1,3.11,3.268C1483.71,51.8,1483.12,53.79,1481.5,55.784Z" transform="translate(-1465.03 -45)" />
</symbol>

<symbol id="cart" viewBox="0 0 18.94 16.969">
<path fill="#243f4d" fill-rule="evenodd" d="M1721.53,85.978a2.073,2.073,0,1,1,0-4.147h0a2.056,2.056,0,0,1,1.46.6,2.03,2.03,0,0,1,.61,1.466A2.071,2.071,0,0,1,1721.53,85.978Zm0-2.963h0a0.889,0.889,0,1,0,.34,1.71,0.9,0.9,0,0,0,.55-0.824,0.92,0.92,0,0,0-.26-0.629A0.9,0.9,0,0,0,1721.53,83.015Zm8.39,2.963a2.045,2.045,0,0,1-1.46-.607,2.068,2.068,0,0,1,1.46-3.54h0a1.953,1.953,0,0,1,1.47.6,2.085,2.085,0,0,1-.67,3.383A2.093,2.093,0,0,1,1729.92,85.978Zm0-2.963h0a0.978,0.978,0,0,0-.82.548,0.887,0.887,0,0,0,1.16,1.161,0.891,0.891,0,0,0,.29-1.452A0.9,0.9,0,0,0,1729.92,83.015Zm-11.27.164a0.562,0.562,0,0,1-.25-0.056,0.59,0.59,0,0,1-.29-0.787,3.686,3.686,0,0,1,3.05-2.151l-1.05-5.391a0.591,0.591,0,1,1,1.16-.228l1.09,5.578h9.43l1.8-6.771h-13.3a4.346,4.346,0,0,1-4.28-3.693,0.587,0.587,0,0,1,.49-0.673,0.6,0.6,0,0,1,.68.5,3.159,3.159,0,0,0,3.11,2.682h14.07a0.582,0.582,0,0,1,.47.232,0.594,0.594,0,0,1,.11.513l-2.13,7.956a0.59,0.59,0,0,1-.57.44h-10.36a0.03,0.03,0,0,0-.02,0,2.66,2.66,0,0,0-2.68,1.51A0.586,0.586,0,0,1,1718.65,83.178Z" transform="translate(-1716 -69)" />
</symbol>

<symbol id="menu" viewBox="0 0 20.03 20.031">
<path fill="#243f4d" fill-rule="evenodd"  d="M1813.15,67.881a2.146,2.146,0,1,1,2.14-2.145A2.145,2.145,0,0,1,1813.15,67.881Zm0,7.869a2.146,2.146,0,1,1,2.14-2.147A2.146,2.146,0,0,1,1813.15,75.75Zm0,7.868a2.146,2.146,0,1,1,2.14-2.146A2.145,2.145,0,0,1,1813.15,83.618Zm7.86-15.737a2.146,2.146,0,1,1,2.15-2.145A2.143,2.143,0,0,1,1821.01,67.881Zm0,7.869a2.146,2.146,0,1,1,2.15-2.147A2.144,2.144,0,0,1,1821.01,75.75Zm0,7.868a2.146,2.146,0,1,1,2.15-2.146A2.143,2.143,0,0,1,1821.01,83.618Zm7.87-15.737a2.146,2.146,0,1,1,2.15-2.145A2.143,2.143,0,0,1,1828.88,67.881Zm0,7.869a2.146,2.146,0,1,1,2.15-2.147A2.144,2.144,0,0,1,1828.88,75.75Zm0,7.868a2.146,2.146,0,1,1,2.15-2.146A2.143,2.143,0,0,1,1828.88,83.618Z" transform="translate(-1811 -63.594)" />
</symbol>

<symbol id="arrow" viewBox="0 0 22 9">
<path fill="#436372" fill-rule="evenodd" d="M.3 5.472h16.948l-.1 2.857a.292.292 0 000 .41l.172.172a.28.28 0 00.2.086.285.285 0 00.2-.084l4.193-4.211A.292.292 0 0022 4.5a.283.283 0 00-.084-.2L17.723.087a.289.289 0 00-.407 0l-.172.173a.287.287 0 00-.084.2.278.278 0 00.084.2l.113 2.865H.292A.3.3 0 000 3.82v1.37a.292.292 0 00.3.282z" />
</symbol>

<symbol id="play"  viewBox="0 0 22 25">
<path fill="#fff" fill-rule="evenodd" data-name="Form 24" class="cls-1" d="M970.684,3900.74l-16.044,9.8a3.228,3.228,0,0,1-3.062.14,2.685,2.685,0,0,1-1.579-2.39V3888.7a2.685,2.685,0,0,1,1.579-2.39,3.258,3.258,0,0,1,3.062.15l16.044,9.79A2.666,2.666,0,0,1,972,3898.5,2.638,2.638,0,0,1,970.684,3900.74Z" transform="translate(-950 -3886)"/>
</symbol>

<symbol id="instagram" viewBox="0 0 17.19 17.19">
<path fill="#888" fill-rule="evenodd" data-name="Union 5" class="cls-1" d="M1004.59,1961.94a4.322,4.322,0,0,1-3.43-3.75c-0.23-1.45-.25-8.19.17-9.65a4.387,4.387,0,0,1,3.75-3.35,34.173,34.173,0,0,1,4.31-.19c1.6,0,3.22.04,4.19,0.1a4.724,4.724,0,0,1,3.14,1.28,4.517,4.517,0,0,1,1.38,2.94c0.12,1.35.21,7.74-.19,9.24a4.411,4.411,0,0,1-3.8,3.44,42.333,42.333,0,0,1-4.74.19A29.143,29.143,0,0,1,1004.59,1961.94Zm0.92-15.26a2.958,2.958,0,0,0-2.75,2.59,57.587,57.587,0,0,0-.06,8.69,2.8,2.8,0,0,0,2.12,2.43,27.569,27.569,0,0,0,4.63.25c1.8,0,3.57-.06,4.24-0.13a2.941,2.941,0,0,0,2.75-2.6,61.315,61.315,0,0,0,.11-8.45,2.9,2.9,0,0,0-2.58-2.74,40.212,40.212,0,0,0-4.3-.16C1007.96,1946.56,1006.26,1946.6,1005.51,1946.68Zm-0.32,6.92a4.445,4.445,0,0,1,4.45-4.41,4.37,4.37,0,0,1,4.37,4.41,4.458,4.458,0,0,1-4.45,4.41A4.37,4.37,0,0,1,1005.19,1953.6Zm1.55-.03a2.834,2.834,0,0,0,2.81,2.88h0.02a2.882,2.882,0,0,0,2.88-2.82,2.82,2.82,0,0,0-2.8-2.88h-0.03A2.881,2.881,0,0,0,1006.74,1953.57Zm6.45-4.55a1.029,1.029,0,0,1,1.03-1.03h0.01a1.016,1.016,0,0,1,1.02,1.04,1.035,1.035,0,0,1-1.04,1.02A1.014,1.014,0,0,1,1013.19,1949.02Z" transform="translate(-1001 -1945)"/>
</symbol>

<symbol id="google" viewBox="0 0 22.66 14.38">
<path fill="#888" fill-rule="evenodd" data-name="Union 6" class="cls-1" d="M1052.75,1960.35a7.121,7.121,0,0,1-6.59-5.65,6.6,6.6,0,0,1-.14-1.93,7.277,7.277,0,0,1,5.49-6.56,5.282,5.282,0,0,1,1.18-.19c0.23-.01.46-0.02,0.69-0.02a6.786,6.786,0,0,1,3.4.93,9.386,9.386,0,0,1,1.27.93c-0.72.71-1.41,1.4-2.11,2.09a3.914,3.914,0,0,0-2.1-1.02,4.259,4.259,0,0,0-.61-0.04,4.307,4.307,0,0,0-4.14,3.35,3.817,3.817,0,0,0-.1,1.3,4.3,4.3,0,0,0,2.94,3.74,4.35,4.35,0,0,0,1.25.19c0.1,0,.2-0.01.3-0.01a4.2,4.2,0,0,0,2.09-.67,3.314,3.314,0,0,0,1.43-2.17h-3.85c0-.09.02-1.89,0.02-2.76l0.01-.12h6.76a7.773,7.773,0,0,1-1.28,6.05,6.273,6.273,0,0,1-3.55,2.32,7.539,7.539,0,0,1-1.94.25C1053.03,1960.36,1052.89,1960.36,1052.75,1960.35Zm13.33-4.05h-1.89v-0.07l0.02-2.43h-2.51v-0.08l0.02-1.82v-0.07h2.5l0.02-2.43v-0.07h1.96v0.07l-0.02,2.43h2.51v0.07l-0.01,1.82v0.08h-2.51l-0.02,2.43v0.07h-0.07Z" transform="translate(-1046.03 -1946)"/>
</symbol>


</svg>
